<?xml version="1.0" encoding="UTF-8"?>
<svg xmlns="http://www.w3.org/2000/svg" xmlns:xlink="http://www.w3.org/1999/xlink" width="24px" height="24px" viewBox="0 0 24 24" version="1.1">
<g id="surface1">
<path style=" stroke:none;fill-rule:nonzero;fill:rgb(0%,0%,0%);fill-opacity:1;" d="M 17.851562 15.359375 L 20.785156 3.859375 L 24 3.859375 L 24 2.050781 L 19.382812 2.050781 L 18.691406 4.761719 L 0 4.75 L 1.988281 15.359375 Z M 18.230469 6.570312 L 16.445312 13.550781 L 3.488281 13.550781 L 2.179688 6.558594 Z M 18.230469 6.570312 "/>
<path style=" stroke:none;fill-rule:nonzero;fill:rgb(0%,0%,0%);fill-opacity:1;" d="M 15.375 21.949219 C 16.96875 21.949219 18.265625 20.652344 18.265625 19.058594 C 18.265625 17.460938 16.96875 16.167969 15.375 16.167969 L 4.484375 16.167969 C 2.890625 16.167969 1.59375 17.460938 1.59375 19.058594 C 1.59375 20.652344 2.890625 21.949219 4.484375 21.949219 C 6.078125 21.949219 7.375 20.652344 7.375 19.058594 C 7.375 18.675781 7.300781 18.308594 7.164062 17.972656 L 12.695312 17.972656 C 12.558594 18.308594 12.484375 18.675781 12.484375 19.058594 C 12.484375 20.652344 13.78125 21.949219 15.375 21.949219 Z M 5.566406 19.058594 C 5.566406 19.652344 5.082031 20.140625 4.484375 20.140625 C 3.886719 20.140625 3.402344 19.652344 3.402344 19.058594 C 3.402344 18.460938 3.886719 17.972656 4.484375 17.972656 C 5.082031 17.972656 5.566406 18.460938 5.566406 19.058594 Z M 16.457031 19.058594 C 16.457031 19.652344 15.972656 20.140625 15.375 20.140625 C 14.777344 20.140625 14.292969 19.652344 14.292969 19.058594 C 14.292969 18.460938 14.777344 17.972656 15.375 17.972656 C 15.972656 17.972656 16.457031 18.460938 16.457031 19.058594 Z M 16.457031 19.058594 "/>
</g>
</svg>
